<svg id="Capa_1" enable-background="new 0 0 511.889 511.889" height="512" viewBox="0 0 511.889 511.889" width="512" xmlns="http://www.w3.org/2000/svg"><g><g><path d="m107.88 122.985-6.32-21.961c-1.453-5.049-6.072-8.526-11.326-8.526h-29.171c-5.254 0-9.873 3.477-11.326 8.526l-6.32 21.961-10.348 34.527h83.35z" fill="#9fbce2"/><path d="m469.472 122.985-6.32-21.961c-1.453-5.049-6.072-8.526-11.326-8.526h-29.171c-5.254 0-9.873 3.477-11.326 8.526l-6.32 21.961-9.067 30.357h83.227z" fill="#e5827f"/><path d="m312.118 21.135h-111.347c-23.972 0-43.475 19.503-43.475 43.475v77.024h32.507l-.507-77.024c0-6.328 5.147-11.475 11.475-11.475h111.348c6.327 0 11.475 5.147 11.475 11.475v77.024h32v-77.023c-.001-23.973-19.504-43.476-43.476-43.476z" fill="#e4e1e5"/><path d="m196.524 92.498h-46.455c-5.529 0-10.012 4.482-10.012 10.012v40.475h66.478v-40.475c0-5.529-4.482-10.012-10.011-10.012z" fill="#efedee"/><path d="m316.365 92.498h46.455c5.529 0 10.012 4.482 10.012 10.012v33.475h-66.478v-33.475c0-5.529 4.482-10.012 10.011-10.012z" fill="#efedee"/><path d="m23.278 146.769h466.333v328.464h-466.333z" fill="#a59ca6"/><path d="m114.095 312.636v-165.867h-90.817v328.464h74.344 391.989v-14.233-57.977h-285.129c-49.919-.001-90.387-40.468-90.387-90.387z" fill="#8f8390"/><circle cx="255.97" cy="314.87" fill="#efedee" r="97.016"/><g><path d="m489.611 177.273h-466.333c-8.156 0-14.768-6.612-14.768-14.768v-24.752c0-8.156 6.612-14.768 14.768-14.768h466.333c8.156 0 14.768 6.612 14.768 14.768v24.752c0 8.156-6.612 14.768-14.768 14.768z" fill="#d6d1d6"/><path d="m114.136 129.01c0-2.148.469-4.183 1.294-6.025h-92.152c-8.156 0-14.768 6.612-14.768 14.768v24.752c0 8.156 6.612 14.768 14.768 14.768h90.858z" fill="#c7c0c7"/><path d="m495.419 490.753h-478.949c-4.954 0-8.97-4.016-8.97-8.97v-22.439c0-4.954 4.016-8.97 8.97-8.97h478.949c4.954 0 8.97 4.016 8.97 8.97v22.439c0 4.954-4.016 8.97-8.97 8.97z" fill="#d6d1d6"/><path d="m268.032 304.996 13.596 9.936c.958.7 1.07 2.089.236 2.934l-41.333 41.842c-1.368 1.384-3.695.122-3.28-1.78l8.336-38.189c.202-.927-.295-1.865-1.176-2.218l-13.724-5.49c-1.268-.507-1.631-2.131-.699-3.129l43.176-46.247c1.361-1.458 3.772-.164 3.31 1.776l-9.185 38.546c-.182.761.111 1.557.743 2.019z" fill="#fbe372"/></g></g><g><path d="m497.11 442.962v-49.501c0-4.142-3.357-7.5-7.5-7.5s-7.5 3.358-7.5 7.5v49.414h-451.333v-258.102h23.927c4.143 0 7.5-3.358 7.5-7.5s-3.357-7.5-7.5-7.5h-31.426c-4.008 0-7.269-3.26-7.269-7.268v-24.752c0-4.008 3.261-7.268 7.269-7.268h466.332c4.008 0 7.269 3.26 7.269 7.268v24.752c0 4.008-3.261 7.268-7.269 7.268h-402.943c-4.143 0-7.5 3.358-7.5 7.5s3.357 7.5 7.5 7.5h395.443v176.726c0 4.142 3.357 7.5 7.5 7.5s7.5-3.358 7.5-7.5v-178.029c8.6-3.086 14.769-11.317 14.769-20.965v-24.752c0-12.279-9.989-22.268-22.269-22.268h-14.492l-4.759-16.535c-2.364-8.215-9.985-13.952-18.533-13.952h-29.172c-8.548 0-16.168 5.737-18.532 13.952l-4.759 16.535h-19.031v-12.975c0-9.564-7.709-17.35-17.239-17.498v-20.401c0-28.108-22.867-50.975-50.975-50.975h-111.347c-28.107 0-50.975 22.867-50.975 50.975v20.401c-9.53.148-17.239 7.934-17.239 17.498v12.975h-19.031l-4.759-16.535c-2.364-8.215-9.984-13.952-18.532-13.952h-29.173c-8.548 0-16.169 5.737-18.533 13.952l-4.759 16.535h-14.492c-12.279 0-22.269 9.989-22.269 22.268v24.752c0 9.648 6.168 17.879 14.768 20.965v259.44c-8.758.367-15.777 7.587-15.777 16.435v22.438c0 9.082 7.389 16.47 16.47 16.47h478.949c9.081 0 16.47-7.388 16.47-16.47v-22.438c0-8.511-6.489-15.533-14.779-16.383zm-300.314-357.95v-20.401c0-2.192 1.783-3.975 3.975-3.975h111.348c2.191 0 3.975 1.783 3.975 3.975v20.401c-9.53.148-17.239 7.934-17.239 17.498v12.975h-84.818v-12.975c-.002-9.564-7.711-17.35-17.241-17.498zm221.74 18.087c.525-1.826 2.219-3.101 4.118-3.101h29.172c1.899 0 3.594 1.275 4.119 3.101l3.565 12.386h-44.539zm-53.204-.589v12.975h-51.479v-12.975c0-1.385 1.127-2.512 2.512-2.512h46.455c1.385 0 2.512 1.127 2.512 2.512zm-164.561-73.875h111.348c19.837 0 35.975 16.138 35.975 35.975v20.388h-17v-20.387c0-10.463-8.512-18.975-18.975-18.975h-111.348c-10.463 0-18.975 8.512-18.975 18.975v20.388h-17v-20.388c0-19.837 16.138-35.976 35.975-35.976zm-53.214 73.875c0-1.385 1.127-2.512 2.512-2.512h46.455c1.385 0 2.512 1.127 2.512 2.512v12.975h-51.479zm-90.614.589c.525-1.826 2.22-3.101 4.119-3.101h29.172c1.899 0 3.593 1.275 4.118 3.101l3.565 12.386h-44.539zm439.946 378.684c0 .811-.659 1.47-1.47 1.47h-478.949c-.811 0-1.47-.659-1.47-1.47v-22.438c0-.811.659-1.47 1.47-1.47h478.949c.811 0 1.47.659 1.47 1.47z"/><path d="m234.646 366.643c1.437.779 2.988 1.159 4.524 1.159 2.452 0 4.862-.968 6.695-2.824l41.331-41.84c1.934-1.956 2.916-4.65 2.697-7.391-.22-2.742-1.619-5.245-3.842-6.871l-10.612-7.755 8.327-34.949c.994-4.164-.946-8.486-4.718-10.511-3.771-2.024-8.446-1.253-11.369 1.876l-43.177 46.249c-2.128 2.28-2.991 5.458-2.312 8.5s2.814 5.551 5.709 6.708l9.354 3.742-7.332 33.591c-.902 4.147.995 8.292 4.725 10.316zm29.661-83.511-4.313 18.104c-.886 3.71.532 7.563 3.611 9.814.001 0 .001 0 .002.001l8.39 6.13-23.33 23.617 4.249-19.463c.985-4.522-1.418-9.055-5.72-10.778l-6.184-2.474z"/><path d="m329.97 265.132c2.324 3.428 6.986 4.323 10.416 2 3.429-2.324 4.324-6.988 2-10.417-19.358-28.558-51.486-45.608-85.941-45.608-57.212 0-103.758 46.545-103.758 103.758s46.546 103.758 103.758 103.758 103.758-46.545 103.758-103.758c0-8.826-1.113-17.6-3.308-26.076-1.038-4.01-5.134-6.42-9.141-5.381-4.01 1.039-6.419 5.131-5.381 9.141 1.877 7.25 2.829 14.758 2.829 22.316 0 48.941-39.816 88.758-88.758 88.758s-88.758-39.816-88.758-88.758 39.816-88.758 88.758-88.758c29.475 0 56.961 14.589 73.526 39.025z"/></g></g></svg>