<svg id="Capa_1" enable-background="new 0 0 511.882 511.882" height="512" viewBox="0 0 511.882 511.882" width="512" xmlns="http://www.w3.org/2000/svg"><g><g><g><path d="m273.811 7.5h-36.741c-28.71 0-51.985 23.274-51.985 51.985v32.963h140.71v-32.963c.001-28.711-23.274-51.985-51.984-51.985z" fill="#fbe88c"/><path d="m286.661 455.771h-62.441v34.781c0 7.638 6.192 13.83 13.83 13.83h34.782c7.638 0 13.83-6.192 13.83-13.83v-34.781z" fill="#efedee"/><path d="m297.875 429.462h-78.455l-10.99 11.336v13.07c0 11.54 9.36 20.9 20.9 20.9h53.22c11.54 0 20.9-9.36 20.9-20.9v-13.07z" fill="#d6d1d6"/><path d="m295.962 172.014h-79.626l-7.905 17.994v250.79h95.02v-250.79z" fill="#efedee"/><path d="m276.841 413.28c-11.54 0-20.9-8.566-20.9-19.127v-222.139h-39.605l-7.905 17.994v250.79h95.02v-27.518z" fill="#e4e1e5"/><path d="m361.531 71.018v48.84c0 4.8-1.82 9.42-5.08 12.95l-53 57.2h-95.02l-53-57.2c-3.26-3.53-5.08-8.15-5.08-12.95v-48.84z" fill="#f8f7f8"/><path d="m255.941 190.008c0-23.882-9.564-46.77-26.556-63.552l-26.444-26.118c-3.26-3.23-5.08-7.458-5.08-11.851v-17.469h-47.51v48.84c0 4.8 1.82 9.42 5.08 12.95l53 57.2z" fill="#efedee"/><g fill="#d6d1d6"><path d="m361.526 95.112h-211.171c-6.377 0-11.547-5.17-11.547-11.547v-12.533c0-6.377 5.17-11.547 11.547-11.547h211.171c6.377 0 11.547 5.17 11.547 11.547v12.532c0 6.378-5.17 11.548-11.547 11.548z"/><path d="m264.301 313.291h-17.72c-4.298 0-7.782-3.484-7.782-7.782v-64.346c0-4.298 3.484-7.782 7.782-7.782h17.72c4.298 0 7.782 3.484 7.782 7.782v64.346c0 4.298-3.485 7.782-7.782 7.782z"/></g></g><path d="m197.861 88.487v-29.002h-47.505c-6.377 0-11.547 5.17-11.547 11.547v12.532c0 6.377 5.17 11.547 11.547 11.547h48.952c-.94-2.085-1.447-4.33-1.447-6.624z" fill="#c7c0c7"/></g><g><path d="m361.526 51.985h-28.727c-3.701-29.27-28.73-51.985-58.988-51.985h-36.74c-7.369 0-14.587 1.347-21.453 4.004-3.863 1.495-5.783 5.838-4.288 9.701s5.838 5.784 9.701 4.288c5.132-1.986 10.529-2.993 16.04-2.993h36.74c21.972 0 40.256 16.017 43.831 36.985h-124.417c1.01-5.921 3.209-11.587 6.514-16.678 2.255-3.474 1.268-8.119-2.207-10.375-3.473-2.254-8.119-1.268-10.375 2.207-4.892 7.534-7.973 16.01-9.091 24.846h-27.712c-10.502 0-19.047 8.544-19.047 19.047v12.532c0 7.84 4.764 14.585 11.547 17.503v18.793c0 6.71 2.512 13.117 7.073 18.04l51.002 55.049v170.009c0 4.142 3.358 7.5 7.5 7.5s7.5-3.358 7.5-7.5v-165.448h80.02v235.784h-80.02v-38.372c0-4.142-3.358-7.5-7.5-7.5s-7.5 3.358-7.5 7.5v58.947c0 11.132 6.441 20.784 15.789 25.438v11.245c0 11.761 9.569 21.33 21.33 21.33h34.782c11.762 0 21.33-9.569 21.33-21.33v-10.774c9.885-4.449 16.789-14.385 16.789-25.909v-260.919l17.391-18.77c2.814-3.038 2.634-7.784-.404-10.599-3.04-2.816-7.784-2.634-10.6.404l-17.162 18.523h-88.469l-50.774-54.803c-1.984-2.142-3.076-4.928-3.076-7.846v-17.249h196.171v17.249c0 2.918-1.093 5.704-3.077 7.846l-11.874 12.816c-2.814 3.039-2.634 7.784.405 10.599 1.443 1.337 3.271 1.999 5.095 1.999 2.016 0 4.025-.808 5.504-2.403l11.873-12.816c4.562-4.923 7.074-11.33 7.074-18.041v-18.793c6.783-2.918 11.547-9.663 11.547-17.503v-12.531c0-10.503-8.544-19.047-19.047-19.047zm-115.228 415.286v-18.978h18.284v18.978zm-30.368-18.978h15.368v18.978h-1.965c-7.39 0-13.402-6.012-13.402-13.402v-5.576zm63.231 42.259c0 3.49-2.84 6.33-6.33 6.33h-34.781c-3.49 0-6.33-2.84-6.33-6.33v-8.281h47.442v8.281zm3.387-23.281h-2.966v-18.978h16.368v5.575c0 7.391-6.012 13.403-13.402 13.403zm-136.24-396.239c0-2.232 1.815-4.047 4.047-4.047h211.17c2.232 0 4.048 1.815 4.048 4.047v12.532c0 2.232-1.815 4.047-4.048 4.047h-211.17c-2.231 0-4.047-1.815-4.047-4.047z"/><path d="m264.301 320.792c8.426 0 15.281-6.855 15.281-15.282v-64.346c0-8.427-6.855-15.282-15.281-15.282h-17.721c-8.427 0-15.282 6.855-15.282 15.282v64.346c0 8.427 6.855 15.282 15.282 15.282zm-17.721-79.911h17.721c.155 0 .281.126.281.282v14.812h-18.284v-14.812c0-.155.127-.282.282-.282zm-.282 64.628v-34.534h18.284v34.534c0 .156-.126.282-.281.282h-17.721c-.155.001-.282-.126-.282-.282z"/></g></g></svg>