<svg id="Capa_1" enable-background="new 0 0 512.104 512.104" height="512" viewBox="0 0 512.104 512.104" width="512" xmlns="http://www.w3.org/2000/svg"><g><g><path d="m453.931 295.453-3.264 2.328h-9.672l-2.064-2.328h-15.684l-2.372 2.593h-10.934l-1.694-2.593h-147.244v82.862h236.745v-82.862z" fill="#fbe88c"/><path d="m21.713 273.163c-7.85 0-14.213-6.364-14.213-14.213v-56.781c0-7.85 6.364-14.213 14.213-14.213h79.193v85.208h-79.193z" fill="#a59ca6"/><g><path d="m353.525 117.774c-11.13-10.92-23.88-20.2-37.85-27.44-19.04-9.87-42.48-2.83-52.86 15.94l-45.43 81.68 38.271 24.132s44.669 38.718 45.309 35.528c.63-3.19 53.98-74.81 53.98-74.81l.21-.23c14.26-15.74 13.54-39.93-1.63-54.8z" fill="#a59ca6"/><path d="m338.74 408.28c16.549 0 29.965-13.416 29.965-29.965v-148.421c0-69.083-56.003-125.086-125.086-125.086h-81.362c-69.083 0-125.086 56.003-125.086 125.086v156.346l54.364 22.04z" fill="#ea9a98"/><path d="m173.961 349.31c-32.432 0-58.723-26.266-58.723-58.667v-63.685c0-67.461 56.482-122.149 126.156-122.149h-79.137c-69.083 0-125.086 56.003-125.086 125.086v156.345l54.364 22.04h247.205c16.549 0 29.965-13.416 29.965-29.965v-29.005z" fill="#e5827f"/><path d="m332.705 356.375v-126.48c0-49.201-39.885-89.086-89.086-89.086h-81.362c-49.201 0-89.086 39.885-89.086 89.086v142.386h243.628c8.785 0 15.906-7.122 15.906-15.906z" fill="#efedee"/><path d="m173.961 349.31c-32.432 0-58.723-26.266-58.723-58.667v-63.685c0-33.28 13.741-63.448 36.035-85.479-44.023 5.408-78.102 42.93-78.102 88.415v142.386h243.628c8.784 0 15.906-7.121 15.906-15.906v-7.065h-158.744z" fill="#e4e1e5"/><path d="m133.007 368.131-94.444-63.078c-5.721-3.821-13.392.28-13.392 7.16v66.102c0 23.177 18.789 41.965 44.273 47.985h58.11c5.41-6.02 11.666-12.276 11.666-19.993v-26.556c-.001-4.667-2.331-9.027-6.213-11.62z" fill="#a59ca6"/><g fill="#efedee"><circle cx="71.099" cy="376.886" r="15.366"/><path d="m499.306 426.301h-20.417c-2.926 0-5.298-2.372-5.298-5.298v-125.55c0-2.926 2.372-5.298 5.298-5.298h20.417c2.926 0 5.298 2.372 5.298 5.298v125.55c-.001 2.926-2.372 5.298-5.298 5.298z"/></g></g></g><g><path d="m71.099 354.019c-12.608 0-22.866 10.258-22.866 22.866 0 12.609 10.258 22.867 22.866 22.867 12.609 0 22.867-10.258 22.867-22.867 0-12.608-10.258-22.866-22.867-22.866zm0 30.733c-4.338 0-7.866-3.529-7.866-7.867 0-4.337 3.528-7.866 7.866-7.866s7.867 3.529 7.867 7.866c0 4.339-3.529 7.867-7.867 7.867z"/><path d="m504.604 376.137c4.143 0 7.5-3.358 7.5-7.5v-73.184c0-7.057-5.741-12.798-12.798-12.798h-20.417c-4.254 0-8.019 2.095-10.347 5.298h-92.337v-18.768c0-4.142-3.357-7.5-7.5-7.5s-7.5 3.358-7.5 7.5v109.13c0 12.387-10.078 22.465-22.465 22.465h-192.02v-21h185.985c4.143 0 7.5-3.358 7.5-7.5v-142.386c0-53.257-43.328-96.585-96.586-96.585h-81.362c-17.705 0-35.036 4.857-50.117 14.045-3.537 2.155-4.657 6.77-2.503 10.307 2.156 3.538 6.771 4.659 10.308 2.502 12.729-7.755 27.361-11.855 42.312-11.855h81.362c44.986 0 81.586 36.599 81.586 81.585v134.887h-184.574c-1.04-1.067-2.191-2.04-3.458-2.886 0 0 0 0-.001 0l-56.501-37.736v-94.264c0-18.39 6-35.763 17.352-50.241 2.556-3.26 1.985-7.974-1.274-10.53-3.26-2.555-7.974-1.986-10.53 1.275-13.441 17.145-20.547 37.718-20.547 59.496v84.246l-20.999-14.025v-70.221c0-64.837 52.748-117.585 117.585-117.585h81.362c64.837 0 117.586 52.749 117.586 117.585v7.329c0 4.142 3.357 7.5 7.5 7.5s7.5-3.358 7.5-7.5v-7.329c0-20.01-4.464-38.995-12.436-56.023 13.791-18.689 11.961-44.832-4.993-61.456-11.752-11.523-25.091-21.193-39.645-28.739-21.261-11.025-46.664-4.552-60.097 14.533-5.059-.589-10.201-.901-15.416-.901h-81.362c-55.64 0-103.378 34.455-123.017 83.147h-17.527c-11.973 0-21.713 9.741-21.713 21.714v56.781c0 11.973 9.74 21.713 21.713 21.713h7.959v15.98c-1.195.316-2.366.765-3.486 1.364-5.252 2.808-8.515 8.251-8.515 14.207v66.102c0 27.275 22.19 49.465 49.466 49.465h58.109c8.438 0 15.733-4.904 19.242-12h194.252c18.09 0 33.226-12.888 36.71-29.965h90.642v35.188c0 7.057 5.74 12.798 12.797 12.798h20.417c7.057 0 12.798-5.741 12.798-12.798v-20.404c0-4.142-3.357-7.5-7.5-7.5s-7.5 3.358-7.5 7.5v18.201h-16.012v-121.146h16.012v70.982c0 4.142 3.357 7.5 7.5 7.5zm-192.376-279.144c13.23 6.86 25.358 15.652 36.047 26.132 9.714 9.525 12.133 23.633 7.071 35.45-17.931-27.992-46.086-48.83-79.155-57.214 9.646-8.576 23.84-10.69 36.037-4.368zm-290.515 168.67c-3.701 0-6.713-3.011-6.713-6.713v-56.781c0-3.702 3.012-6.713 6.713-6.713h12.504c-2.958 10.987-4.545 22.53-4.545 34.438v35.769zm110.007 140.645c0 3.569-2.904 6.473-6.474 6.473h-58.109c-19.005 0-34.466-15.461-34.466-34.465v-66.102c0-.165 0-.666.587-.979.2-.107.381-.146.538-.146.301 0 .512.141.602.201l94.443 63.078c1.803 1.204 2.879 3.216 2.879 5.383zm244.485-35.493v-67.862h32.042v15.718c0 4.142 3.357 7.5 7.5 7.5s7.5-3.358 7.5-7.5v-15.718h15.684v34.18c0 4.142 3.357 7.5 7.5 7.5s7.5-3.358 7.5-7.5v-34.18h12.161v67.862z"/></g></g></svg>