<svg id="Capa_1" enable-background="new 0 0 512.313 512.313" height="512" viewBox="0 0 512.313 512.313" width="512" xmlns="http://www.w3.org/2000/svg"><g><g><g id="XMLID_160_"><g><g><path d="m207.977 30.921v167.78h-46.85v-167.78c0-12.93 10.49-23.42 23.42-23.42 12.94 0 23.43 10.49 23.43 23.42z" fill="#f8f7f8"/></g></g></g><g id="XMLID_161_"><g><path d="m161.127 54.991h46.85v34.11h-46.85z" fill="#e4e1e5"/></g></g><g id="XMLID_164_"><g><g><path d="m352.187 30.921v167.78h-46.85v-167.78c0-12.93 10.49-23.42 23.42-23.42 12.94 0 23.43 10.49 23.43 23.42z" fill="#f8f7f8"/></g></g></g><g id="XMLID_162_"><g><path d="m305.337 54.991h46.85v34.11h-46.85z" fill="#e4e1e5"/></g></g><path d="m246.715 504.813h19.883c4.15 0 7.515-3.365 7.515-7.515v-115.546c0-4.15-3.365-7.515-7.515-7.515h-19.883c-4.15 0-7.515 3.365-7.515 7.515v115.546c0 4.15 3.365 7.515 7.515 7.515z" fill="#a59ca6"/><path d="m129.831 300.276c0 14.27 6.272 27.818 17.152 37.051l65.553 55.627v20.624c0 8.636 7.001 15.637 15.637 15.637h55.965c8.636 0 15.637-7.001 15.637-15.637v-20.624l65.553-55.627c10.88-9.233 17.152-22.781 17.152-37.051v-114.542h-252.649z" fill="#a59ca6"/><path d="m292.241 392.948c-8.636 0-15.637-7.001-15.637-15.637 0-13.082-5.75-25.503-15.725-33.968l-49.828-42.283c-10.88-9.233-17.153-22.781-17.153-37.051v-78.276h-64.067v114.542c0 14.27 6.272 27.818 17.152 37.051l65.553 55.627v20.624c0 8.636 7.001 15.637 15.637 15.637h55.965c8.636 0 15.637-7.001 15.637-15.637v-20.624l.006-.005z" fill="#8f8390"/><g><path d="m382.482 219.519h-252.651c-10.001 0-18.109-8.107-18.109-18.109v-24.606c0-10.001 8.107-18.109 18.109-18.109h252.651c10.001 0 18.109 8.107 18.109 18.109v24.606c0 10.001-8.108 18.109-18.109 18.109z" fill="#b3adb5"/><path d="m299.417 334.469h-86.521c-7.574 0-13.714-6.14-13.714-13.714v-27.548c0-7.574 6.14-13.714 13.714-13.714h86.521c7.574 0 13.714 6.14 13.714 13.714v27.548c0 7.574-6.14 13.714-13.714 13.714z" fill="#d6d1d6"/></g><path d="m129.831 158.696c-10.001 0-18.109 8.107-18.109 18.109v24.606c0 10.001 8.108 18.109 18.109 18.109h64.176l.148-60.823h-64.324z" fill="#a59ca6"/></g><g><path d="m382.482 151.196h-22.8v-120.275c0-17.05-13.871-30.921-30.92-30.921-17.05 0-30.921 13.871-30.921 30.921v120.275h-82.369v-120.275c0-17.05-13.871-30.921-30.92-30.921s-30.92 13.871-30.92 30.921v77.493c0 4.142 3.358 7.5 7.5 7.5s7.5-3.358 7.5-7.5v-11.816h31.841v54.598h-31.841v-10.819c0-4.142-3.358-7.5-7.5-7.5s-7.5 3.358-7.5 7.5v10.819h-23.8c-14.121 0-25.609 11.488-25.609 25.608v24.606c0 11.512 7.636 21.271 18.109 24.486v74.38c0 16.503 7.217 32.092 19.8 42.77l13.886 11.784c1.41 1.196 3.134 1.781 4.849 1.781 2.126 0 4.239-.899 5.723-2.647 2.68-3.158 2.292-7.891-.866-10.571l-13.886-11.784c-9.218-7.822-14.505-19.242-14.505-31.332v-73.257h182.887c4.143 0 7.5-3.358 7.5-7.5s-3.357-7.5-7.5-7.5h-190.388c-5.85 0-10.609-4.759-10.609-10.608v-24.606c0-5.85 4.759-10.608 10.609-10.608h252.65c5.85 0 10.608 4.759 10.608 10.608v24.606c0 5.85-4.759 10.608-10.608 10.608h-30.3c-4.143 0-7.5 3.358-7.5 7.5s3.357 7.5 7.5 7.5h22.8v73.257c0 12.09-5.287 23.51-14.505 31.332l-65.554 55.627c-1.68 1.425-2.647 3.516-2.647 5.719v20.624c0 4.487-3.65 8.137-8.137 8.137h-55.965c-4.487 0-8.137-3.65-8.137-8.137v-20.624c0-2.203-.968-4.293-2.647-5.719l-27.284-23.152c-3.158-2.679-7.892-2.291-10.571.866-2.68 3.158-2.292 7.891.866 10.571l24.637 20.906v17.151c0 12.758 10.379 23.137 23.137 23.137h3.526v68.099c0 4.142 3.358 7.5 7.5 7.5s7.5-3.358 7.5-7.5v-68.099h19.914v68.099c0 4.142 3.357 7.5 7.5 7.5s7.5-3.358 7.5-7.5v-68.099h2.525c12.758 0 23.137-10.379 23.137-23.137v-17.151l62.906-53.38c12.583-10.678 19.8-26.267 19.8-42.77v-74.38c10.472-3.214 18.108-12.974 18.108-24.485v-24.606c-.001-14.122-11.489-25.61-25.609-25.61zm-197.93-136.196c8.778 0 15.92 7.142 15.92 15.921v16.574h-31.841v-16.574c0-8.779 7.142-15.921 15.921-15.921zm-15.921 66.598v-19.103h31.841v19.103zm144.21-19.103h31.841v19.103h-31.841zm15.921-47.495c8.778 0 15.92 7.142 15.92 15.921v16.574h-31.841v-16.574c0-8.779 7.143-15.921 15.921-15.921zm-15.921 136.196v-54.598h31.841v54.598z"/><path d="m299.417 341.969c11.697 0 21.214-9.517 21.214-21.214v-27.548c0-11.697-9.517-21.214-21.214-21.214h-86.521c-11.697 0-21.214 9.517-21.214 21.214v27.548c0 11.697 9.517 21.214 21.214 21.214zm-92.735-21.214v-27.548c0-3.426 2.788-6.214 6.214-6.214h86.521c3.427 0 6.214 2.788 6.214 6.214v27.548c0 3.426-2.787 6.214-6.214 6.214h-86.521c-3.426 0-6.214-2.788-6.214-6.214z"/></g></g></svg>