<svg id="Capa_1" enable-background="new 0 0 512.091 512.091" height="512" viewBox="0 0 512.091 512.091" width="512" xmlns="http://www.w3.org/2000/svg"><g><g><g><path d="m398.747 335.395v-.69c0-5.198-1.35-10.26-3.864-14.718l-1.527-.788-8.524-1.971-.906-8.151 4.971-4.09v-18.583l-4.78-3.662v-7.46l4.78-3.878v-32.562l-2.641-2.274v-10.579l2.641-2.147v-16.54l-2.713-2.344-2.055-3.999 2.666-5.776 6.862-2.888c3.062-4.555 4.818-9.874 5.059-15.402l-4.307-3.17.585-8.527 3.629-3.303c-.96-10.599-7.504-19.971-17.297-24.48l-18.24-8.4v-16.49c0-2.64-2.14-4.78-4.78-4.78h-22.36c-2.64 0-4.77 2.14-4.77 4.78v16.49l-12.618 5.808-3.508 30.789 11.588 41.691-12.071 99.778 3.818 68.307 12.79 5.887v16.49c0 2.64 2.13 4.78 4.77 4.78h22.36c2.64 0 4.78-2.14 4.78-4.78v-16.49l18.24-8.4c9.168-4.221 15.478-12.716 17.035-22.479l-1.428-1.147-2.019-2.394.462-7.356z" fill="#fcf1de"/><path d="m336.261 348.908v-11.33c0-7.726 2.845-15.162 7.984-20.864l.826-.909c.795-.888 1.244-2.045 1.244-3.243v-114.316c0-1.198-.448-2.355-1.244-3.243l-.826-.909c-5.139-5.701-7.984-13.138-7.984-20.864v-11.33c0-12.074 6.934-23.043 17.763-28.094l9.674-4.51-.611-.282v-16.49c0-2.64-2.14-4.78-4.78-4.78h-22.36c-2.64 0-4.77 2.14-4.77 4.78v16.49l-18.25 8.4c-9.789 4.507-16.332 13.879-17.296 24.473l2.566 1.193-.158 10.417-2.501 3.396c.241 5.529 2.009 10.854 5.073 15.409.04.013 8.135 2.562 8.256 2.602s2.342 8.519 2.342 8.519l-4.118 2.826-1.723 1.051v16.54l1.9 2.247s-.209 10.681 0 10.472-1.9 2.281-1.9 2.281v32.562l2.105 1.963v11.628l-2.105 1.409v18.583l3.901 2.131s-.491 10.179-.536 10.045-7.589 1.92-7.589 1.92l-1.772.905c-2.514 4.458-3.864 9.519-3.864 14.718v.69s3.095 2.776 2.992 2.708c-.103-.069.003 10.052.003 10.052l-2.609 2.241c1.557 9.764 7.867 18.258 17.035 22.479l18.25 8.4v16.49c0 2.64 2.13 4.78 4.77 4.78h22.36c2.64 0 4.78-2.14 4.78-4.78v-16.49l.051-.024-9.114-4.249c-10.831-5.05-17.765-16.019-17.765-28.093z" fill="#f6e2c4"/></g><g><path d="m216.345 336.176v-.69c0-5.198-1.35-10.26-3.864-14.718l-1.527-.788-8.524-1.971-.906-8.151 4.971-4.09v-18.583l-4.78-3.662v-7.46l4.78-3.878v-32.562l-2.641-2.274v-10.579l2.641-2.147v-16.54l-2.713-2.344-2.055-3.999 2.666-5.776 6.862-2.888c3.062-4.555 4.818-9.874 5.059-15.402l-4.307-3.17.585-8.527 3.629-3.303c-.96-10.599-7.504-19.971-17.297-24.48l-18.24-8.4v-16.49c0-2.64-2.14-4.78-4.78-4.78h-22.36c-2.64 0-4.77 2.14-4.77 4.78v16.49l-12.618 5.808-3.508 30.789 11.588 41.691-12.071 99.778 3.818 68.307 12.79 5.887v16.49c0 2.64 2.13 4.78 4.77 4.78h22.36c2.64 0 4.78-2.14 4.78-4.78v-16.49l18.24-8.4c9.168-4.221 15.478-12.716 17.035-22.479l-1.428-1.147-2.019-2.394.462-7.356z" fill="#fcf1de"/><path d="m153.859 349.689v-11.33c0-7.726 2.845-15.162 7.984-20.864l.826-.909c.795-.888 1.244-2.045 1.244-3.243v-114.316c0-1.198-.448-2.355-1.244-3.243l-.826-.909c-5.139-5.701-7.984-13.138-7.984-20.864v-11.33c0-12.074 6.934-23.043 17.763-28.094l9.674-4.51-.611-.282v-16.49c0-2.64-2.14-4.78-4.78-4.78h-22.36c-2.64 0-4.77 2.14-4.77 4.78v16.49l-18.25 8.4c-9.789 4.507-16.332 13.879-17.296 24.473l2.566 1.193-.158 10.417-2.501 3.396c.241 5.529 2.009 10.854 5.073 15.409.04.013 8.135 2.562 8.256 2.602s2.342 8.519 2.342 8.519l-4.118 2.826-1.723 1.051v16.54l1.9 2.247s-.209 10.681 0 10.472-1.9 2.281-1.9 2.281v32.562l2.105 1.963v11.628l-2.105 1.409v18.583l3.901 2.131s-.491 10.179-.536 10.045-7.589 1.92-7.589 1.92l-1.772.905c-2.514 4.458-3.864 9.519-3.864 14.718v.69s3.095 2.776 2.992 2.708c-.103-.069.003 10.052.003 10.052l-2.609 2.241c1.557 9.764 7.867 18.258 17.035 22.479l18.25 8.4v16.49c0 2.64 2.13 4.78 4.77 4.78h22.36c2.64 0 4.78-2.14 4.78-4.78v-16.49l.051-.024-9.114-4.249c-10.831-5.05-17.765-16.019-17.765-28.093z" fill="#f6e2c4"/></g></g><g><path d="m202.064 131.382-13.881-6.393v-11.685c0-6.769-5.507-12.275-12.275-12.275h-3.681v-93.529c0-4.142-3.357-7.5-7.5-7.5s-7.5 3.358-7.5 7.5v93.53h-3.681c-6.769 0-12.275 5.506-12.275 12.275v11.685l-13.881 6.393c-13.233 6.095-21.784 19.447-21.784 34.017v10.969c0 9.368 3.479 18.335 9.795 25.253l.06.065v108.478l-.061.067c-6.315 6.917-9.794 15.884-9.794 25.252v10.969c0 14.569 8.551 27.922 21.784 34.017l13.881 6.393v11.685c0 6.769 5.507 12.275 12.275 12.275h3.681v93.77c0 4.142 3.357 7.5 7.5 7.5s7.5-3.358 7.5-7.5v-93.77h3.681c6.769 0 12.275-5.506 12.275-12.275v-11.685l13.881-6.393c13.233-6.095 21.784-19.447 21.784-34.017v-10.969c0-9.368-3.479-18.335-9.795-25.253l-.06-.065v-108.479l.061-.067c6.315-6.917 9.794-15.884 9.794-25.252v-10.969c.001-14.57-8.55-27.922-21.784-34.017zm-71.603 174.386v-18.583h68.533v18.583zm68.533-97.685v16.54h-68.533v-16.54zm-68.533 31.54h68.533v32.562h-68.533zm72.518-48.119-.808.884c-.204.224-.392.459-.578.695h-73.733c-.186-.237-.375-.473-.579-.697l-.805-.88c-3.49-3.822-5.511-8.693-5.81-13.831h88.121c-.297 5.137-2.319 10.008-5.808 13.829zm-69.313-46.498 18.243-8.401c2.659-1.225 4.362-3.885 4.362-6.812v-13.763h16.912v13.763c0 2.928 1.703 5.587 4.362 6.812l18.243 8.401c7.1 3.27 11.938 10.026 12.88 17.668h-87.883c.943-7.642 5.781-14.398 12.881-17.668zm62.123 221.838-18.243 8.401c-2.659 1.225-4.362 3.885-4.362 6.812v13.763h-16.912v-13.763c0-2.928-1.703-5.587-4.362-6.812l-18.243-8.401c-6.474-2.982-11.075-8.861-12.551-15.668h27.395c4.143 0 7.5-3.358 7.5-7.5s-3.357-7.5-7.5-7.5h-27.904v-.693c0-5.432 1.966-10.629 5.519-14.715h77.204c3.553 4.087 5.519 9.284 5.519 14.715v.693h-28.376c-4.143 0-7.5 3.358-7.5 7.5s3.357 7.5 7.5 7.5h27.867c-1.476 6.807-6.077 12.687-12.551 15.668z"/><path d="m389.129 247.444c4.143 0 7.5-3.358 7.5-7.5v-38.257l.061-.067c6.316-6.917 9.795-15.885 9.795-25.252v-10.969c0-14.57-8.552-27.922-21.785-34.017l-13.881-6.393v-11.685c0-6.769-5.507-12.275-12.275-12.275h-3.681v-93.529c0-4.142-3.357-7.5-7.5-7.5s-7.5 3.358-7.5 7.5v93.53h-3.681c-6.769 0-12.275 5.506-12.275 12.275v11.685l-13.88 6.393c-13.234 6.095-21.786 19.447-21.786 34.017v10.969c0 9.367 3.479 18.335 9.796 25.253l.06.065v108.478l-.061.067c-6.316 6.917-9.795 15.885-9.795 25.252v10.969c0 14.569 8.552 27.922 21.785 34.017l13.881 6.393v11.685c0 6.769 5.507 12.275 12.275 12.275h3.681v93.77c0 4.142 3.357 7.5 7.5 7.5s7.5-3.358 7.5-7.5v-93.77h3.681c6.769 0 12.275-5.506 12.275-12.275v-11.685l13.881-6.393c13.233-6.095 21.785-19.448 21.785-34.017v-10.969c0-9.367-3.479-18.335-9.796-25.253l-.06-.065v-38.257c0-4.142-3.357-7.5-7.5-7.5s-7.5 3.358-7.5 7.5v.278h-68.533v-32.562h68.533v.321c0 4.14 3.357 7.498 7.5 7.498zm-72.828-102.438 18.243-8.401c2.659-1.225 4.362-3.885 4.362-6.812v-13.763h16.912v13.763c0 2.928 1.703 5.587 4.362 6.812l18.244 8.402c7.099 3.269 11.938 10.025 12.88 17.668h-28.197c-4.143 0-7.5 3.358-7.5 7.5s3.357 7.5 7.5 7.5h28.316c-.298 5.137-2.32 10.008-5.81 13.829l-.808.884c-.204.224-.392.459-.578.695h-73.733c-.186-.237-.375-.473-.58-.697l-.805-.88c-3.49-3.823-5.512-8.694-5.811-13.831h27.845c4.143 0 7.5-3.358 7.5-7.5s-3.357-7.5-7.5-7.5h-27.723c.942-7.643 5.781-14.399 12.881-17.669zm69.663 175.762c3.554 4.087 5.52 9.284 5.52 14.715v.693h-88.244v-.693c0-5.432 1.967-10.629 5.52-14.715zm-7.54 46.076-18.243 8.401c-2.659 1.225-4.362 3.885-4.362 6.812v13.763h-16.912v-13.763c0-2.928-1.703-5.587-4.362-6.812l-18.243-8.401c-6.475-2.982-11.076-8.861-12.551-15.668h87.226c-1.477 6.807-6.079 12.686-12.553 15.668zm3.205-79.659v18.583h-68.533v-18.583zm-68.533-62.562v-16.54h68.533v16.54z"/></g></g></svg>