<svg id="Capa_1" enable-background="new 0 0 511.809 511.809" height="512" viewBox="0 0 511.809 511.809" width="512" xmlns="http://www.w3.org/2000/svg"><g><g><path d="m267.791 504.309h-22.445c-3.422 0-6.196-2.774-6.196-6.196v-237.751h34.838v237.751c-.001 3.422-2.775 6.196-6.197 6.196z" fill="#a59ca6"/><g><g><path d="m314.921 25.742v163.73h-118.03v-163.73c0-10.08 8.17-18.24 18.24-18.24h81.55c10.07 0 18.24 8.16 18.24 18.24z" fill="#f8f7f8"/></g></g><path d="m240.916 152.585v-134.273c0-4.053 1.337-7.783 3.572-10.81h-29.357c-10.07 0-18.24 8.16-18.24 18.24v126.843z" fill="#efedee"/><g><g id="XMLID_163_"><g><path d="m286.393 256.652h-56.255l-11.067 17.371v32.13c0 8.67 7.03 15.7 15.7 15.7h41.27c8.67 0 15.7-7.03 15.7-15.7v-32.13z" fill="#8f8390"/><path d="m277.36 293.086c-8.67 0-15.7-6.063-15.7-13.541v-17.372c0-1.873-.233-3.722-.671-5.521h-30.852l-11.067 17.371v32.13c0 8.67 7.03 15.7 15.7 15.7h41.27c8.67 0 15.7-7.03 15.7-15.7v-13.066h-14.38z" fill="#786e78"/><path d="m181.741 226.642v-79.68c0-7.4 5.99-13.4 13.39-13.4h120.54c7.4 0 13.4 6 13.4 13.4v79.68c0 4.39-1.65 8.61-4.61 11.83l-32.72 35.55h-72.67l-32.72-35.55c-2.97-3.22-4.61-7.44-4.61-11.83z" fill="#a59ca6"/></g></g><path d="m261.66 262.173c0-6.626-2.825-12.988-7.866-17.712l-24.854-23.291c-2.97-2.777-4.61-6.417-4.61-10.203v-68.724c0-3.463 1.773-6.562 4.568-8.681h-33.768c-7.4 0-13.39 6-13.39 13.4v79.68c0 4.39 1.64 8.61 4.61 11.83l32.72 35.55h42.59z" fill="#8f8390"/><path d="m266.489 99.922h-21.17c-5.418 0-9.724 4.55-9.425 9.96l4.899 88.709c.276 5.003 4.414 8.919 9.425 8.919h11.372c5.011 0 9.149-3.916 9.425-8.919l4.899-88.709c.299-5.41-4.007-9.96-9.425-9.96z" fill="#8f8390"/><g id="XMLID_166_"><g><path d="m255.901 7.502h29.04v42.03h-29.04z" fill="#e4e1e5"/><path d="m226.871 7.502v42.03h-29.98v-23.79c0-10.08 8.17-18.24 18.24-18.24h11.74z" fill="#d6d1d6"/><g fill="#efedee"><path d="m226.871 7.502h29.03v42.03h-29.03z"/><path d="m314.921 25.742v23.79h-29.98v-42.03h11.74c10.07 0 18.24 8.16 18.24 18.24z"/></g></g></g></g><path d="m226.871 49.532h14.045v-37.914c0-1.483.723-2.878 1.978-4.116h-16.023z" fill="#e4e1e5"/></g><g><path d="m322.417 126.883v-26.961c0-4.142-3.358-7.5-7.5-7.5s-7.5 3.358-7.5 7.5v26.14h-24.884l.871-15.766c.255-4.627-1.425-9.211-4.61-12.577s-7.669-5.296-12.304-5.296h-21.17c-4.634 0-9.119 1.931-12.304 5.296-3.185 3.366-4.865 7.95-4.61 12.577l.871 15.766h-24.884v-69.033h103.024v10.931c0 4.142 3.358 7.5 7.5 7.5s7.5-3.358 7.5-7.5v-42.222c0-14.192-11.546-25.738-25.738-25.738h-81.549c-14.192 0-25.738 11.546-25.738 25.738v101.145c-8.737 2.503-15.156 10.547-15.156 20.077v79.685c0 6.283 2.343 12.29 6.599 16.912l1.531 1.664c1.479 1.607 3.496 2.421 5.52 2.421 1.815 0 3.636-.655 5.077-1.982 3.048-2.805 3.244-7.55.439-10.597l-1.531-1.664c-1.699-1.846-2.635-4.244-2.635-6.753v-37.075h20.367c4.142 0 7.5-3.358 7.5-7.5s-3.358-7.5-7.5-7.5h-20.367v-27.611c0-3.252 2.646-5.898 5.898-5.898h34.971l3.2 57.943c.496 8.975 7.925 16.005 16.914 16.005h11.372c8.989 0 16.418-7.03 16.914-16.005l3.2-57.943h34.97c3.252 0 5.898 2.646 5.898 5.898v27.609h-20.367c-4.142 0-7.5 3.358-7.5 7.5s3.358 7.5 7.5 7.5h20.367v37.075c0 2.509-.936 4.907-2.635 6.753l-30.489 33.124h-67.089l-7.31-7.941c-2.805-3.048-7.55-3.245-10.597-.439-3.048 2.805-3.244 7.55-.439 10.597l7.556 8.209v29.205c0 11.734 8.758 21.455 20.079 22.985v175.172c0 4.142 3.358 7.5 7.5 7.5s7.5-3.358 7.5-7.5v-174.955h19.838v61.539c0 4.142 3.358 7.5 7.5 7.5s7.5-3.358 7.5-7.5v-61.971c10.671-2.081 18.752-11.497 18.752-22.768v-29.205l30.735-33.391c4.255-4.623 6.599-10.629 6.599-16.912v-79.686c0-9.53-6.419-17.574-15.156-20.077zm-74.012-84.854h-14.032v-27.029h14.032zm15-27.029h14.032v27.029h-14.032zm44.012 10.738v16.291h-14.98v-27.029h4.243c5.92 0 10.737 4.817 10.737 10.738zm-92.287-10.738h4.243v27.029h-14.98v-16.291c-.001-5.921 4.816-10.738 10.737-10.738zm48.397 183.177c-.057 1.027-.907 1.833-1.937 1.833h-11.372c-1.029 0-1.88-.805-1.937-1.833l-4.898-88.709c-.038-.689.266-1.164.528-1.44.262-.277.718-.606 1.408-.606h21.17c.69 0 1.147.33 1.409.606s.565.751.527 1.44zm13.511 116.177h-42.268c-4.522 0-8.201-3.679-8.201-8.201v-24.631h58.669v24.631c.001 4.522-3.678 8.201-8.2 8.201z"/><path d="m273.987 415.354c-4.142 0-7.5 3.358-7.5 7.5v81.454c0 4.142 3.358 7.5 7.5 7.5s7.5-3.358 7.5-7.5v-81.454c0-4.142-3.358-7.5-7.5-7.5z"/></g></g></svg>