<svg id="Capa_1" enable-background="new 0 0 511.58 511.58" height="512" viewBox="0 0 511.58 511.58" width="512" xmlns="http://www.w3.org/2000/svg"><g><g><path d="m448.075 363.935h-99.747c-7.42 0-13.435-6.015-13.435-13.435v-41.04h126.616v41.04c0 7.42-6.015 13.435-13.434 13.435z" fill="#d6d1d6"/><path d="m227.696 297.46h56.189v90.337h-56.189z" fill="#d6d1d6"/><path d="m314.508 432.93h-117.435v-30.863c0-8.985 7.284-16.269 16.269-16.269h84.896c8.985 0 16.269 7.284 16.269 16.269v30.863z" fill="#efedee"/><path d="m504.08 286.634v20.203c0 4.763-3.861 8.623-8.623 8.623h-479.333c-4.763 0-8.623-3.861-8.623-8.623v-20.203l29.805-21.793h440.521z" fill="#e4e1e5"/><g><path d="m504.08 286.634h-496.58l50.894-213.329c2.056-8.617 9.756-14.696 18.615-14.696h357.562c8.858 0 16.559 6.08 18.615 14.696z" fill="#f8f7f8"/><path d="m138.157 234.288c-25.073 0-43.496-23.525-37.486-47.867l31.489-127.527c.024-.097.058-.189.084-.285h-55.235c-8.859 0-16.559 6.08-18.615 14.696l-50.894 213.329h496.58l-12.488-52.346z" fill="#efedee"/><g><path d="m464.279 253.388c.27 1.14-.6 2.25-1.78 2.25h-413.42c-1.18 0-2.05-1.11-1.78-2.25l38.74-162.38c.2-.82.93-1.4 1.78-1.4h335.95c.84 0 1.57.58 1.77 1.4z" fill="#b8cee9"/></g><path d="m49.079 255.638h413.42c1.18 0 2.05-1.11 1.78-2.25l-4.557-19.1h-321.565c-25.073 0-43.496-23.525-37.486-47.867l23.905-96.812h-36.757c-.85 0-1.58.58-1.78 1.4l-38.74 162.38c-.27 1.139.6 2.249 1.78 2.249z" fill="#9fbce2"/><path d="m368.839 452.971h-226.098v-14.45c0-11.372 9.219-20.59 20.59-20.59h184.917c11.372 0 20.59 9.219 20.59 20.59v14.45z" fill="#e4e1e5"/></g></g><g><path d="m110.037 97.109c4.143 0 7.5-3.358 7.5-7.5s-3.357-7.5-7.5-7.5h-22.222c-4.338 0-8.067 2.947-9.069 7.161l-38.74 162.376c-.666 2.793-.027 5.688 1.753 7.941 1.779 2.253 4.446 3.546 7.317 3.546h97.249c.005 0 .01.001.016.001.007 0 .014-.001.021-.001h218.856c.007 0 .014.001.021.001.005 0 .01-.001.016-.001h97.248c2.872 0 5.539-1.292 7.318-3.546 1.78-2.254 2.419-5.148 1.752-7.943l-38.737-162.37c-1.004-4.219-4.733-7.166-9.071-7.166h-281.671c-4.143 0-7.5 3.358-7.5 7.5s3.357 7.5 7.5 7.5h16.484l-4.951 39.629h-70.785l9.455-39.629h17.74zm-44.317 111.395h78.94l-4.951 39.629h-83.443zm272.165-111.395 4.951 39.629h-79.546v-39.629zm6.825 54.63 5.218 41.766h-86.638v-41.766zm97.571 41.765h-77.236l-5.218-41.766h72.49zm-90.479 15 4.951 39.629h-93.463v-39.629zm-103.512-15h-86.638l5.218-41.766h81.42zm0 15v39.629h-93.463l4.951-39.629zm123.581 39.63-4.951-39.629h78.941l9.454 39.629zm56.868-111.395h-70.785l-4.951-39.629h66.282zm-255.044-39.63h74.595v39.629h-79.546zm-21.942 54.63-5.218 41.766h-77.236l9.964-41.766z"/><path d="m511.571 286.769c.011-.625-.048-1.254-.196-1.875l-50.894-213.33c-2.874-12.043-13.529-20.455-25.91-20.455h-34.328c-4.143 0-7.5 3.358-7.5 7.5s3.357 7.5 7.5 7.5h34.328c5.409 0 10.064 3.675 11.32 8.937l48.688 204.088h-477.579l48.689-204.088c1.256-5.262 5.91-8.937 11.319-8.937h291.244c4.143 0 7.5-3.358 7.5-7.5s-3.357-7.5-7.5-7.5h-291.243c-12.382 0-23.036 8.412-25.909 20.456l-50.895 213.328c-.15.629-.208 1.266-.194 1.899l-.011 20.045c0 8.891 7.233 16.124 16.124 16.124h53.133c4.143 0 7.5-3.358 7.5-7.5s-3.357-7.5-7.5-7.5h-53.133c-.62 0-1.124-.504-1.124-1.124v-12.703h481.58v12.703c0 .62-.504 1.124-1.123 1.124h-394.237c-4.143 0-7.5 3.358-7.5 7.5s3.357 7.5 7.5 7.5h118.976v55.337h-6.854c-13.106 0-23.77 10.663-23.77 23.77v8.363h-26.241c-15.489 0-28.09 12.601-28.09 28.09v6.951h-.872c-4.143 0-7.5 3.358-7.5 7.5s3.357 7.5 7.5 7.5h241.602c4.143 0 7.5-3.358 7.5-7.5 0-4.018-3.161-7.288-7.132-7.481v-6.969c0-15.489-12.601-28.09-28.09-28.09h-26.241v-8.363c0-13.106-10.663-23.77-23.77-23.77h-6.854v-55.339h36.008v27.541c0 11.543 9.392 20.935 20.935 20.935h99.747c11.543 0 20.935-9.391 20.935-20.935v-27.541h26.448c8.891 0 16.123-7.233 16.123-16.124zm-150.232 151.751v6.951h-211.098v-6.951c0-7.218 5.872-13.09 13.09-13.09h184.918c7.218 0 13.09 5.872 13.09 13.09zm-54.331-36.453v8.363h-102.436v-8.363c0-4.835 3.934-8.77 8.77-8.77h84.896c4.836.001 8.77 3.935 8.77 8.77zm-30.623-23.769h-41.189v-55.338h41.189zm177.624-27.797c0 3.272-2.662 5.935-5.935 5.935h-99.747c-3.272 0-5.935-2.662-5.935-5.935v-27.541h111.616v27.541z"/><path d="m365.132 347.198h24.713c4.143 0 7.5-3.358 7.5-7.5s-3.357-7.5-7.5-7.5h-24.713c-4.143 0-7.5 3.358-7.5 7.5s3.357 7.5 7.5 7.5z"/><path d="m424.931 347.198h6.407c4.143 0 7.5-3.358 7.5-7.5s-3.357-7.5-7.5-7.5h-6.407c-4.143 0-7.5 3.358-7.5 7.5s3.357 7.5 7.5 7.5z"/></g></g></svg>